<svg id="Layer_1" data-name="Layer 1" xmlns="http://www.w3.org/2000/svg" viewBox="0 0 601.2 446.99"><defs><style>.cls-1{fill:#fff;}</style></defs><path class="cls-1" d="M11.57,352.12a264,264,0,0,0-2.78-36.75q-.79-6-3.58-21.85-.4-2-.69-4.47a36.45,36.45,0,0,1-.3-4.28A12.73,12.73,0,0,1,5.81,278q1.59-2.58,5.76-3.38,6.15-1,8.54,7.55a93.87,93.87,0,0,1,1.69,12,94.31,94.31,0,0,0,1.49,11.23q1.38,6.15,4.17,6.15a4.66,4.66,0,0,0,3-1.39Q41,300.27,47.63,294.61t11.52-9.14a87.79,87.79,0,0,0,9.63-8.05l15.9-15.16c2.51-2.1,4.17-3.41,5-3.94q4.17-2.74,7-2.75a8.07,8.07,0,0,1,2.78.6q4.77,2,4.77,5.54,0,3.38-4,8.13A60.2,60.2,0,0,1,93,277q-19.86,17.83-39.73,35.48,15.49,6.35,37.15,9.91,6.56,1,38.14,4.75,23.64,1.39,35.36,2.38,21.06,1.78,33.78,7.93a21.44,21.44,0,0,1-7,3.47,28.31,28.31,0,0,1-7.94,1.09c-.93,0-2.75-.06-5.47-.2s-5-.2-6.85-.2q-6.36,0-30-4.17a111,111,0,0,0-18.08-2q-25-1.57-49.86-3.17-28.41-4-44.3-19.87l-2.19,2v39.73a21.66,21.66,0,0,1-.79,4.37l-1.2,4q-3.37-2.58-5.66-4.37a10.13,10.13,0,0,0-2.68-1.79c-.79.93-1.39,1.59-1.79,2a18.26,18.26,0,0,1-2.38,2.19Z"/><path class="cls-1" d="M247.78,276.79a67.17,67.17,0,0,0,5.17,16.1q4.95,9.93,7.35,15.3,4.56,7.35,6.75,11.13,7.35,12.12,7.95,13.91,5.16,11.73,7.94,20.17c1.86,5.64,2.79,10.17,2.79,13.62q0,6.36-4.38,8a10.12,10.12,0,0,1-3.17.6q-4.77,0-7.95-5.57a45,45,0,0,1-3.78-9.93q-2-7-3-10.33-3.77-12.53-5.16-18.48-8.34.8-16.49,1.39-17.49,2.39-21,12.82t-4.47,11.82q-2.38,3.57-6,3.57a14.37,14.37,0,0,1-3-.59,6.61,6.61,0,0,1-3.38-2,4.78,4.78,0,0,1-1.19-3.18c0-1.46.8-3.77,2.39-7a36.76,36.76,0,0,0,2.78-6.56,189.53,189.53,0,0,1,7.15-23.45q1.38-3.78,5.36-14.11,2.19-5.76,7.55-26.83,4.17-16.31,9.34-25.44a22.42,22.42,0,0,1,7.75,10.73C245.33,262.87,246.19,267.65,247.78,276.79Zm-18.87,39.72a39,39,0,0,0,9.14,1.39q4.75,0,11.92-3.57-3.39-6.56-6.56-13.31-2.39-5-6-13.71-3.57,8.54-5.36,14.1A76.14,76.14,0,0,0,228.91,316.51Z"/><path class="cls-1" d="M346.12,293.12H366a69.86,69.86,0,0,1,9.54.5,17.41,17.41,0,0,1,6.16,2.08q4.36,2.39,4.37,6.36,0,5.16-9.34,12.32a66.9,66.9,0,0,1-13.9,8.34,163.36,163.36,0,0,0-19.08,9.73q-7.14,4.19-18.47,11.33a126.58,126.58,0,0,0,14.9,2.08q8.14.7,17.08.7,6.75,0,22.55-.4l16.39-.39q1.4,0,17.88-2.39a98.2,98.2,0,0,1,12.72-1.19q6.35,0,9.83,1.79a6.2,6.2,0,0,1,3.48,6q0,5.35-2.69,7.65c-1.78,1.52-4.27,2.28-7.45,2.28q-3.57,0-13.9-2.38a38.1,38.1,0,0,0-7.15-1.2q-9.73,0-43.12,2.79-16.68,1.38-27,1.39a143.45,143.45,0,0,1-26.23-2.2Q299,355.47,299,348.66q0-3.41,3.78-7.61a47,47,0,0,1,9.73-8q4-2.6,15.5-8.61,18.07-9.6,24.24-16.61a68.53,68.53,0,0,0-11.13-.79q-6.36,0-19.47,1.39t-19.47,1.39h-5a10.29,10.29,0,0,1-5.17-1q-2.38-1.57-2.38-5.31-.6-6.66,11.12-8.83c3.18-.52,6.42-1.05,9.74-1.57q3.57,2.58,10.33,2.58a66.24,66.24,0,0,0,8.94-.79A155.91,155.91,0,0,1,346.12,293.12Z"/><path class="cls-1" d="M446.24,324.91q3-4.57,14.51-10.93a121.8,121.8,0,0,1,16.88-8q5-1.78,20.86-7.55,22.46-8.34,35.56-11.12,10.74-3.18,16.1-4.57a63.51,63.51,0,0,1,16.09-2.58,31.48,31.48,0,0,1,7.55.79q-3.78,12.92-17.68,15.3l-26.23,3.57a16.9,16.9,0,0,0-10.23,8.45,32,32,0,0,0-3.08,14.6,68,68,0,0,0,.8,9.93,110,110,0,0,0,2.18,10.93q19.86-4.77,31.09-6.46a139.91,139.91,0,0,1,20.57-1.69,82.42,82.42,0,0,1,17.28,1.79,18.27,18.27,0,0,0-.2,3.18c.13,2.38.2,4.11.2,5.17A183.57,183.57,0,0,0,554.72,349a194.49,194.49,0,0,0-33.18,9.24q-.79.41-7.75,3.58a13.19,13.19,0,0,1-5.56,1.19,35.85,35.85,0,0,1-5.56-.6q-7.95-.78-13.61-1.49a113.35,113.35,0,0,1-13.61-2.68q2-8.14,13-10t12.22-12.82a67.13,67.13,0,0,0,.6-8.74c0-4-.67-7.05-2-9.23s-3.58-3.28-6.76-3.28a10.68,10.68,0,0,0-2.38.2q-23.06,9.53-45.89,18.87v-.6Q445.06,326.7,446.24,324.91Z"/><path class="cls-1" d="M327.5,176c-2.41-3.93-6.08-7.59-7-11.84-2.87-13.41-9.8-25-15.37-37.16a189.7,189.7,0,0,1-17.06-64.33c-1.32-16.87,1.38-32.85,12.81-46.14,11.64-13.52,23-11.73,28.75,5.11,2.82,8.21,3.79,17.28,4.25,26,1.12,21.48-3.47,42.41-7.47,63.36-3.1,16.2-5,32.46-.61,48.74.85,3.14,2.46,6.08,3.41,9.2a40.4,40.4,0,0,1,.89,6.17ZM317,140.66c2-10.48,3.56-19.84,5.61-29.1,4.56-20.54,8.94-41.16,7-62.31a87.47,87.47,0,0,0-6.09-25.1c-4.7-11.4-12.89-12.39-21.33-3.47-7.91,8.37-11.23,18.79-11.89,30-1.61,27.21,6.84,52.07,18.48,76.08C311.06,131.4,314,135.68,317,140.66Z"/><path class="cls-1" d="M352.57,146.68c-.58,1.61-1.15,3.23-1.77,4.95,21.34-8.45,42.81-16.28,63.69-25.44a89.15,89.15,0,0,0,39.16-32.72,43.59,43.59,0,0,0,4.28-8.79c1.38-3.69-.25-6-4.14-5.54-7.13.87-14.41,1.52-21.27,3.51-22,6.38-41.36,17.38-56.78,34.69a16.44,16.44,0,0,1-3.08,2.19,109.47,109.47,0,0,1,34.47-29.61c15.41-8.65,31.71-15.15,49.41-17.22,3.48-.4,8.33-.27,10.47,1.78,3.26,3.13.84,7.77-1.17,11.36-6,10.77-14.73,19.27-24.19,27-18.8,15.3-40.13,25.88-62.73,34.37a149.28,149.28,0,0,0-24.45,12.39c-3.07,1.85-4.62,6.1-7.14,9-1.34,1.56-3.27,2.63-4.93,3.93-.94-1.88-2.77-3.85-2.6-5.63a17,17,0,0,1,3-7.55C345.84,155,349.3,150.89,352.57,146.68Z"/><path class="cls-1" d="M228.59,324.32c-4.15,9.24-8.77,18.32-12.36,27.78-4.84,12.77-8.31,25.92-7.12,39.88.14,1.61-1.38,3.37-2.14,5-1.76-.88-4.27-1.3-5.16-2.73-4.26-6.82-3.9-14.48-2.59-22,4-22.64,16.07-41,31.09-57.71,3-3.36,5.64-7.09,8.34-10.53,0,.16-.06.81-.18,2.44,3.85-3.72,7.3-6.84,10.5-10.2,11.85-12.47,24.2-24.53,35.22-37.7,8.33-9.95,13.51-22,17-36.24-5.74,5.11-10.65,9.19-15.21,13.62-4.81,4.69-9.52,9.53-13.86,14.65s-7.9,10.41-11.82,15.64l-1-.7c4.57-6.41,8.72-13.16,13.8-19.13,6.47-7.62,13.91-14.42,20.5-21.94,4.61-5.24,8.5-11.11,12.72-16.7,1.76-2.34,3.27-5,5.42-6.86,1-.88,3.23-.37,4.91-.49,0,1.53.07,3.07-.07,4.58a3.44,3.44,0,0,1-.93,1.72c-8,9.3-11.63,20.82-16.34,31.8-7.23,16.88-18.15,31.1-31.3,43.75C257.88,292,247.76,301.62,238,311.61c-3.69,3.78-6.4,8.52-9.57,12.83-.24-.57-.47-1.16-.71-1.76-17.28,17.24-29.23,47.11-24.16,58,4-11.22,7.89-23.56,12.91-35.41C219.62,337.92,224.5,331.29,228.59,324.32Z"/><path class="cls-1" d="M296.71,182.49c-3-4.38-6.76-5-10.4-4.65-10.3.88-20.54,2.38-30.83,3.26-31.64,2.71-60.36-4.79-84.81-25.6-4.36-3.71-7.86-8.84-10.57-13.95-3-5.7,0-10.09,6.53-10.32a38.65,38.65,0,0,1,9.26,1c12.22,2.58,22.68,9.07,33,15.9a65,65,0,0,0-6.82-3.33c-7.84-2.79-15.63-5.86-23.68-7.83-3-.72-6.62,1.35-10,2.14,1.1,3.28,1.44,7.13,3.43,9.73,8.12,10.64,19.55,16.82,31.65,21.83,23.23,9.63,47,9.46,71.06,3.73a94.9,94.9,0,0,1,16.57-2.15A24.36,24.36,0,0,1,312,181c-15.73,9.12-21.63,9.57-26,1.48Z"/><path class="cls-1" d="M388.81,291c4.43,1.09,8.85,2.19,13.29,3.25a21.68,21.68,0,0,0,3.4.54c14.88,1.25,21.36-5.51,19-20.22-2-12.45-8.42-23.09-15.15-33.37C399,225.36,385.92,212,369.47,202.39c-5.24-3-11.44-4.83-17.44-6s-8.49.93-9.5,7c-2,12-.39,23.94,2.55,35.6a75.21,75.21,0,0,0,22.14,37.65,44.07,44.07,0,0,1,3.21,3.6c-9-5.15-14.71-13.33-19.86-21.94-8.25-13.79-9.73-29.37-12-44.82-1.23-8.51-4-16.79-5.94-25.2a13.74,13.74,0,0,1,.06-3.56,21.31,21.31,0,0,1,3.59.23c3.09.74,6.11,2.16,9.22,2.38,8.36.6,15.57,4.16,22.29,8.55,26.46,17.26,45.46,40.93,58.33,69.6a58.83,58.83,0,0,1,3.91,13.67c1.44,8-3.11,15-11,16.69C408.44,298.15,398.32,296.22,388.81,291Z"/><path class="cls-1" d="M371.15,163.35c2.13,2.89,4.62,4.92,4.27,6.1-.61,2-3,3.52-4.61,5.25-1.44-1.63-4-3.2-4-4.89S369,166.29,371.15,163.35Z"/><path class="cls-1" d="M242.6,400.3a13.56,13.56,0,0,0-.29-1.6,11.1,11.1,0,0,1-.3-2.2,3.3,3.3,0,0,1,.19-1.28.82.82,0,0,1,.83-.4,2.46,2.46,0,0,1,1.05.29,2.72,2.72,0,0,1,1.39,1.73,10.34,10.34,0,0,1,.38,3.08q0,1.09-.12,2.85a17.72,17.72,0,0,0-.09,2.22,9.32,9.32,0,0,0,3-1.82q4.6-3.8,4.81-3.92a3.31,3.31,0,0,1,1.65-.55c1.15,0,2.05,1,2.7,3.08.44,1.77.9,3.54,1.35,5.31,1.09-1.43,2-2.53,2.61-3.29,1.21-1.4,2.26-2.11,3.17-2.11a2.28,2.28,0,0,1,1.54.7,4.42,4.42,0,0,1,1.13,1.94,13.06,13.06,0,0,1,.41,3.78,11,11,0,0,0,.5,4,3.09,3.09,0,0,0,3.17,1.72,25.63,25.63,0,0,1,4.17.24,8.92,8.92,0,0,1,3.08,1.33l-4.68,2a14.72,14.72,0,0,1-5.19,1.1c-2,.17-3.31-1.23-3.92-4.18q-.68-3.37-1.31-6.75a34.47,34.47,0,0,0-3.21,5.92,52.91,52.91,0,0,1-3,6,5.33,5.33,0,0,1-1.73-1.68,4.44,4.44,0,0,1-.42-2.06c0-.23,0-.67,0-1.33s.05-1.21.05-1.66q0-2.86-.21-5a39.08,39.08,0,0,0-.85-4.86c-1.54,1.21-2.88,2.3-4,3.29s-2.25,2-3.79,3.46a4.7,4.7,0,0,0-1.27,1.94,8,8,0,0,0-.34,2.4c0,.57,0,1.12,0,1.67s.05,1.09.08,1.62a4.23,4.23,0,0,1-.06.7,4.06,4.06,0,0,0-.07.53,3.42,3.42,0,0,1-3.3-3.17c-.45-2.64-1.06-4.36-1.84-5.14a12,12,0,0,0,2-3.78,14.37,14.37,0,0,0,.63-4.32V400.3Z"/><path class="cls-1" d="M294.62,398.74a20.66,20.66,0,0,0-3.79,1.77,34,34,0,0,0-3.5,2.41c-.71.65-1.21,1.09-1.52,1.35a2.29,2.29,0,0,1-1.35.72,1,1,0,0,1-.66-.24,3.74,3.74,0,0,1-.67-.88,2.51,2.51,0,0,1-.4-1.33c0-1.35,1.3-2.66,3.92-3.93l3.25-1.43c1.12-.62,2-1.08,2.62-1.39a11.21,11.21,0,0,1,4.68-1.61,3.43,3.43,0,0,1,1.77.45,3.74,3.74,0,0,1,1.35,1.49,26.52,26.52,0,0,1,2.36,6.12,47.94,47.94,0,0,1,1.31,6.42,14.62,14.62,0,0,0,1.39,3.81,10.13,10.13,0,0,1,1.23,4,4.39,4.39,0,0,1-.55,2.07,1.61,1.61,0,0,1-1.39,1,2.57,2.57,0,0,1-2.24-1.27,10.6,10.6,0,0,1-1.06-2.36q-4.64,1.89-7.42,2.89a26.69,26.69,0,0,1-8.52,1.88,9,9,0,0,1-4-.8,6.78,6.78,0,0,1-2.95-2.95,2.84,2.84,0,0,1-.43-1.51q0-2,2.7-4.13a20,20,0,0,1,4.48-2.65,29,29,0,0,1,7.3-2.19q1.68-.3,7.29-.93a12.07,12.07,0,0,0-.76-4.59c-.67-1.63-1.68-2.44-3-2.44A4.41,4.41,0,0,0,294.62,398.74Zm-12.53,17.13a13.47,13.47,0,0,0,2.39.59,16.23,16.23,0,0,0,2.55.21,22.1,22.1,0,0,0,7.07-1.2,31.61,31.61,0,0,0,6.77-3.23,5.73,5.73,0,0,0-2.79-2.3,11,11,0,0,0-4.17-.74,15.86,15.86,0,0,0-7.6,1.92C283.92,412.4,282.52,414,282.09,415.87Z"/><path class="cls-1" d="M312.26,399.24q0,1.51.06,2.79a15.77,15.77,0,0,0,.49,3l3.21-3.38c1.47-1.41,2.68-2.11,3.64-2.11a2.14,2.14,0,0,1,1.42.53,4.72,4.72,0,0,1,1.12,1.83,25.29,25.29,0,0,1,1.12,5.53,30.83,30.83,0,0,0,.95,5.32q.51,1.56,3.85,2.19l3,.51a4,4,0,0,1-2,2.42,6.57,6.57,0,0,1-3.43.95,5.86,5.86,0,0,1-2.3-.44,3.79,3.79,0,0,1-1.67-1.37,9.54,9.54,0,0,1-1.48-4.39,68.41,68.41,0,0,0-1.14-8.1,16.32,16.32,0,0,0-5.52,6.45,20.07,20.07,0,0,0-1.78,8.56,3.15,3.15,0,0,1-2.63-1.6,8,8,0,0,1-.74-3.71,26.8,26.8,0,0,1,.25-3.52q.25-1.91.51-3.6a23.28,23.28,0,0,0-.22-2.9c-.36-2.62-.54-4.2-.54-4.76a8.36,8.36,0,0,1,.39-2.7,5.56,5.56,0,0,1,1.42-2.15c.66,1,1.12,1.75,1.37,2.2A5,5,0,0,1,312.26,399.24Z"/><path class="cls-1" d="M331.58,414.35v-1.9q0-5.19-.1-7.89c-.07-1.8-.21-3.57-.4-5.31a4.59,4.59,0,0,1-.05-.76,5.89,5.89,0,0,1,.6-2.7c.4-.79.85-1.18,1.36-1.18.69,0,1.27.69,1.75,2.06a8.53,8.53,0,0,1,.47,2.7,22,22,0,0,1-.25,2.49,22.75,22.75,0,0,0-.26,2.62v3.92c0,1.24,0,2.3.1,3.17a21.49,21.49,0,0,0,.41,2.78,14.06,14.06,0,0,0,6-2.34,12,12,0,0,0,4.41-4.41,13,13,0,0,0,1.14-5.57,13.73,13.73,0,0,1,1-5.36,4.52,4.52,0,0,1,2.34,2.09,11.56,11.56,0,0,1,.78,5v1.73a14.44,14.44,0,0,0,.26,2.28,16,16,0,0,1,.25,2.41c0,1.71,1,2.84,3,3.37l3.25.76a15.19,15.19,0,0,1-2.53,2.11,5.93,5.93,0,0,1-3.21,1,4.07,4.07,0,0,1-3.88-2.36l-1.3-2.83a58.44,58.44,0,0,1-5.45,3.93q-4.1,2.54-6.45,2.53a2.91,2.91,0,0,1-2.36-1A5.26,5.26,0,0,1,331.58,414.35Z"/><path class="cls-1" d="M363.31,387.81l.51-.54h2.07a14.33,14.33,0,0,1,2.2.16c.9.2,1.56.33,2,.38a31,31,0,0,1,5.5,1.27A9.61,9.61,0,0,1,380,392.5a31.6,31.6,0,0,1-5.59-.87,32.25,32.25,0,0,0-5.93-.86,11.79,11.79,0,0,0-1.94.14,8.34,8.34,0,0,0-1.8.59,2.87,2.87,0,0,0-1.47,1.69,8.05,8.05,0,0,0-.49,3,20.75,20.75,0,0,0,.38,3.63c.11.64.34,1.68.68,3.12a22.13,22.13,0,0,1,3.41-.26,35.5,35.5,0,0,1,3.59.19c1.18.13,2.49.32,3.92.57a23.29,23.29,0,0,1-4.34,1.73c-1.52.47-3,.94-4.52,1.38a3.51,3.51,0,0,0-2.06,1.64,6.14,6.14,0,0,0-.55,2.78,19,19,0,0,0,.17,2.19c.25,2,.38,3.26.38,3.74a5.49,5.49,0,0,1-.55,2.61,4.28,4.28,0,0,1-2.25-2,6.44,6.44,0,0,1-.49-2.73c0-.4,0-1,.08-1.81s.09-1.39.09-1.73a4.45,4.45,0,0,0-.68-2.77c-.08-.09-.55-.53-1.39-1.35a3.85,3.85,0,0,1-.89-1,1.87,1.87,0,0,1-.21-.9v-.78c0-.29,0-.62,0-1a2.75,2.75,0,0,0,2.12-.59,3,3,0,0,0,.5-1.94v-2.15a25.79,25.79,0,0,0-.34-3.42,27.35,27.35,0,0,1-.34-3.41,5.69,5.69,0,0,1,.69-2.94,4.13,4.13,0,0,1,2.53-1.7Z"/><path class="cls-1" d="M392,398.74a20.43,20.43,0,0,0-3.8,1.77,35.15,35.15,0,0,0-3.5,2.41c-.7.65-1.21,1.09-1.52,1.35a2.24,2.24,0,0,1-1.35.72,1,1,0,0,1-.65-.24,3.72,3.72,0,0,1-.68-.88,2.51,2.51,0,0,1-.4-1.33q0-2,3.92-3.93l3.25-1.43c1.13-.62,2-1.08,2.62-1.39a11.21,11.21,0,0,1,4.68-1.61,3.38,3.38,0,0,1,1.77.45,3.74,3.74,0,0,1,1.35,1.49,27,27,0,0,1,2.37,6.12,49.58,49.58,0,0,1,1.3,6.42,14.74,14.74,0,0,0,1.4,3.81,10.25,10.25,0,0,1,1.22,4,4.28,4.28,0,0,1-.55,2.07,1.6,1.6,0,0,1-1.39,1,2.58,2.58,0,0,1-2.24-1.27,10.22,10.22,0,0,1-1.05-2.36c-3.1,1.26-5.57,2.22-7.43,2.89a26.69,26.69,0,0,1-8.52,1.88,9,9,0,0,1-4-.8,6.78,6.78,0,0,1-3-2.95,2.92,2.92,0,0,1-.42-1.51q0-2,2.7-4.13a19.7,19.7,0,0,1,4.47-2.65,29.08,29.08,0,0,1,7.3-2.19c1.12-.2,3.56-.51,7.3-.93a12.27,12.27,0,0,0-.76-4.59c-.68-1.63-1.69-2.44-3-2.44A4.36,4.36,0,0,0,392,398.74Zm-12.53,17.13a13.14,13.14,0,0,0,2.38.59,16.43,16.43,0,0,0,2.55.21,22.06,22.06,0,0,0,7.07-1.2,31.38,31.38,0,0,0,6.77-3.23,5.7,5.7,0,0,0-2.78-2.3,11.06,11.06,0,0,0-4.18-.74,15.85,15.85,0,0,0-7.59,1.92C381.29,412.4,379.89,414,379.47,415.87Z"/><path class="cls-1" d="M413.85,418.53c-1.07.25-1.87.42-2.4.5a12.64,12.64,0,0,1-2.37.3,3.51,3.51,0,0,1-2-.51,2.33,2.33,0,0,1-1-1.54,8.63,8.63,0,0,1-.23-2q0-4,3.92-8.65A33.87,33.87,0,0,1,417,400.3q1.44-.93,2.07-1.26a5,5,0,0,1,2.19-.68,1.77,1.77,0,0,1,1.23.47,3,3,0,0,1,.76,1.47,3.3,3.3,0,0,1,.12.8q0,1.65-2.19,2.58L417.48,405a15.43,15.43,0,0,0-5,4.28,12.77,12.77,0,0,0-2.85,5.63l.66.06c.21,0,.46,0,.74,0a22.19,22.19,0,0,0,7.76-1.73l7.51-3a21.89,21.89,0,0,0,3.46-1.9,6.6,6.6,0,0,1,2.95-1.23,2.16,2.16,0,0,1,1.31.49,4.16,4.16,0,0,1,1.14,1.58l-6.79,3.71c-2.54,1.33-4.94,2.45-7.22,3.38A38.12,38.12,0,0,1,413.85,418.53Z"/><path class="cls-1" d="M439.88,414.9q0-1.23.09-4c0-1.84.08-2.8.08-2.89v-2.15c-.08-.65-.15-1.23-.21-1.75a2.63,2.63,0,0,0-.76-1.5,10.07,10.07,0,0,1-1.83-2.42,3.49,3.49,0,0,1-.15-.91q0-.51.69-.84a3,3,0,0,0,1-.74,2.5,2.5,0,0,0,.44-1,5.86,5.86,0,0,0,.13-1.14c0-.26,0-.51,0-.76s0-.51,0-.76a9.27,9.27,0,0,0-.17-1.44,23,23,0,0,1-.37-3.08,3.47,3.47,0,0,1,.33-1.68,1.33,1.33,0,0,1,1.27-.59q2.07,0,2.38,4.15c.21,2.77.46,4.34.74,4.7.62.76,2.33,1.29,5.15,1.57,1.91.19,3.84.38,5.78.54H455q-3.67,1.06-7.3,2.07a7.85,7.85,0,0,0-3.67,1.2,3.65,3.65,0,0,0-1,3,46.78,46.78,0,0,0,.3,5.67,17.88,17.88,0,0,0,1.27,4.75c1.77-.53,2.87-.84,3.31-.93a10.81,10.81,0,0,1,1.87-.13,5.78,5.78,0,0,1-2.42,3.46,6.74,6.74,0,0,1-4,1.44,3.38,3.38,0,0,1-2.47-.93A3.93,3.93,0,0,1,439.88,414.9Z"/><path class="cls-1" d="M453.93,414.35v-1.9c0-3.46,0-6.09-.1-7.89s-.21-3.57-.41-5.31a6.5,6.5,0,0,1,0-.76,5.89,5.89,0,0,1,.6-2.7c.4-.79.85-1.18,1.36-1.18.68,0,1.27.69,1.75,2.06a8.53,8.53,0,0,1,.47,2.7,24.79,24.79,0,0,1-.25,2.49,22.75,22.75,0,0,0-.26,2.62v3.92c0,1.24,0,2.3.1,3.17a19.89,19.89,0,0,0,.41,2.78,14.06,14.06,0,0,0,6-2.34A12.17,12.17,0,0,0,468,407.6a13.14,13.14,0,0,0,1.14-5.57,13.73,13.73,0,0,1,1-5.36,4.52,4.52,0,0,1,2.34,2.09,11.56,11.56,0,0,1,.78,5v1.73a15.46,15.46,0,0,0,.25,2.28,15,15,0,0,1,.26,2.41c0,1.71,1,2.84,3,3.37l3.25.76a15.19,15.19,0,0,1-2.53,2.11,5.93,5.93,0,0,1-3.21,1,4.07,4.07,0,0,1-3.88-2.36c-.56-1.21-1-2.15-1.31-2.83a57.12,57.12,0,0,1-5.44,3.93q-4.09,2.54-6.45,2.53a2.93,2.93,0,0,1-2.37-1A5.33,5.33,0,0,1,453.93,414.35Z"/><path class="cls-1" d="M480.47,402.92c0-.2.18-1.55.38-4.05s.94-3.76,2.23-3.76a2,2,0,0,1,1.67.64,2.78,2.78,0,0,1,.48,1.73,10.65,10.65,0,0,1-.12,1.56c-.17.78-.33,1.56-.47,2.32a14.07,14.07,0,0,0,2.91.29q.9,0,2.7-.12c1.21-.09,2.1-.13,2.66-.13a11.2,11.2,0,0,1,3.19.42,6.15,6.15,0,0,1,2.59,1.6,19.9,19.9,0,0,1-6,1.42,27.3,27.3,0,0,0-6,1.2,3.16,3.16,0,0,0-2,2.26,16.26,16.26,0,0,0-.49,4.32v5.57c-.06.39-.1.68-.12.84a4.38,4.38,0,0,1-3.63-2.82,14.06,14.06,0,0,1-.93-5.66,30.75,30.75,0,0,1,.21-3.81C479.93,405.62,480.16,404.35,480.47,402.92Z"/><path class="cls-1" d="M503.38,384.73c.64-.14,1.19.17,1.64.93a3.38,3.38,0,0,1,.4,1,6,6,0,0,1,.13.66c0,.12,0,.29,0,.48a2.05,2.05,0,0,1-.25,1.06,1.46,1.46,0,0,1-.93.59h-.51a1.57,1.57,0,0,1-1.3-.9,4.08,4.08,0,0,1-.43-2,5,5,0,0,1,.15-1.36c.1-.34.28-.51.53-.51A3.16,3.16,0,0,0,503.38,384.73Zm-.55,25v-1a14,14,0,0,1,.29-2.7,33.26,33.26,0,0,0,.76-4.59c-.05-.39-.1-.86-.14-1.39s-.07-1.09-.07-1.68a9.31,9.31,0,0,1,.21-2.24c.14-.53.41-.8.8-.8s1.06.48,1.82,1.43a3.42,3.42,0,0,1,.63,1.37,7.62,7.62,0,0,1,.21,1.79,22.4,22.4,0,0,1-.59,4.47l-.81,3.79q-.26,3.17-.47,6.28c-.43,2.72-1.32,4.27-2.68,4.63a8.34,8.34,0,0,1-.64-3.16c0-.44.15-1.65.45-3.62A17.38,17.38,0,0,0,502.83,409.69Z"/><path class="cls-1" d="M513.71,399.24c0,1,0,1.94.07,2.79a15.67,15.67,0,0,0,.48,3l3.22-3.38c1.46-1.41,2.67-2.11,3.63-2.11a2.12,2.12,0,0,1,1.42.53,4.6,4.6,0,0,1,1.12,1.83,25.29,25.29,0,0,1,1.12,5.53,31.86,31.86,0,0,0,1,5.32q.51,1.56,3.85,2.19l3,.51a4,4,0,0,1-2,2.42,6.6,6.6,0,0,1-3.44.95,5.86,5.86,0,0,1-2.3-.44,3.79,3.79,0,0,1-1.67-1.37,9.43,9.43,0,0,1-1.47-4.39,73.78,73.78,0,0,0-1.14-8.1,16.27,16.27,0,0,0-5.53,6.45,20.07,20.07,0,0,0-1.77,8.56,3.16,3.16,0,0,1-2.64-1.6,8,8,0,0,1-.74-3.71,26.92,26.92,0,0,1,.26-3.52c.16-1.27.33-2.47.5-3.6a21.51,21.51,0,0,0-.22-2.9c-.36-2.62-.54-4.2-.54-4.76a8.36,8.36,0,0,1,.39-2.7,5.59,5.59,0,0,1,1.43-2.15c.66,1,1.11,1.75,1.36,2.2A5,5,0,0,1,513.71,399.24Z"/><path class="cls-1" d="M540.84,417.44a23.48,23.48,0,0,1-2.43.77,8.8,8.8,0,0,1-2.21.32,3.36,3.36,0,0,1-2.28-.68,3.25,3.25,0,0,1-.93-2.6,7.16,7.16,0,0,1,0-.93,9.32,9.32,0,0,1,3-5.94,18.34,18.34,0,0,1,6-3.49,64.52,64.52,0,0,1,6.59-2,2.72,2.72,0,0,0,1.58-1.43c.43-.79.95-1.18,1.54-1.18a1.69,1.69,0,0,1,1.43.93,5.79,5.79,0,0,1,.7,1.79,19.86,19.86,0,0,1,.4,2.68c.08,1,.13,2,.13,3s-.06,2.53-.17,4.22c-.26,3.79-.38,6.17-.38,7.13,0,.53,0,1.46.08,2.78s.09,2,.09,2.11a10.07,10.07,0,0,1-.76,4.3A5.55,5.55,0,0,1,549.7,432a33.94,33.94,0,0,1-4,.78,32.72,32.72,0,0,1-4.83.36,19.9,19.9,0,0,1-4.78-.51A5.9,5.9,0,0,1,533,431a2.58,2.58,0,0,1-.85-1.77q0-1.72,3.21-3.08a22.91,22.91,0,0,1,4.93-1.39c-1.23,1.21-2.46,2.43-3.67,3.67a13.46,13.46,0,0,0,5.19,1.06,14.08,14.08,0,0,0,3.36-.43,20.92,20.92,0,0,0,3.44-1.18,3.8,3.8,0,0,0,1.85-2.76,19.93,19.93,0,0,0,.59-5.17,38.62,38.62,0,0,0-.23-4.37,34,34,0,0,0-.65-3.77c-.85.53-2,1.28-3.42,2.26A30.2,30.2,0,0,1,540.84,417.44Zm-5.19-2.58a10.05,10.05,0,0,0,1.56.12,15.23,15.23,0,0,0,7.93-2.32c2.84-1.68,4.53-3.74,5.07-6.16a8.65,8.65,0,0,0-2.11-.25,14.12,14.12,0,0,0-7.83,2.51A9.89,9.89,0,0,0,535.65,414.86Z"/></svg>